<svg width="40" height="40" viewBox="0 0 40 40" fill="none" xmlns="http://www.w3.org/2000/svg">
<circle cx="20" cy="20" r="20" fill="#00D9C5"/>
<path d="M23.8567 23.6599C23.6653 23.4715 23.5794 23.0917 23.5794 22.4271V16.8884C23.5794 16.2766 23.1227 15.8682 22.1823 15.6406C21.581 15.4959 20.8545 15.3813 20.0558 15.3813C18.9179 15.3813 17.6339 15.6119 16.3559 16.3143C15.0808 17.0151 14.1419 18.2027 13.7817 19.5726C13.631 20.1468 13.2467 22.1407 14.6272 23.7066C15.3611 24.54 16.4809 25.0253 17.6263 25.0042C18.835 24.9816 19.8599 24.3848 20.3195 23.9296C20.731 24.3531 21.3157 24.5325 22.0828 24.5325C22.85 24.5325 23.5688 24.2687 23.9562 23.9613C24.036 23.898 24.0225 23.7759 23.9366 23.7217C23.9079 23.7036 23.8823 23.6825 23.8567 23.6584V23.6599ZM19.8282 20.7798C19.8282 21.6102 19.4364 21.9945 19.1063 22.1724C18.927 22.2688 18.7416 22.302 18.5758 22.302C18.3739 22.302 18.202 22.2522 18.1071 22.2085C17.7198 22.0262 17.5103 21.6961 17.4455 21.1701C17.3957 20.7662 17.3566 19.7278 18.0604 18.7889C18.4809 18.2283 19.0988 17.8545 19.572 17.8786C19.7137 17.8862 19.8282 18.0067 19.8282 18.1469V20.7813V20.7798Z" fill="white"/>
<path d="M30.9663 14.7153C29.7576 14.7379 28.7327 15.3347 28.2731 15.7899C27.8631 15.3664 27.2769 15.187 26.5113 15.187C25.7457 15.187 25.0268 15.4508 24.638 15.7582C24.5581 15.8215 24.5716 15.9436 24.6575 15.9978C24.6862 16.0159 24.7118 16.037 24.7374 16.0611C24.9288 16.2495 25.0132 16.6293 25.0132 17.2924V22.831C25.0132 22.8401 25.0132 22.8506 25.0132 22.8597V27.2137C25.0132 27.5618 25.3131 27.8331 25.6598 27.7969L27.4457 27.6161C28.1947 27.5407 28.7644 26.9093 28.7644 26.1557V23.996C29.6867 24.3125 31.3913 24.2221 32.6542 23.4761C33.7363 22.8371 34.5321 21.764 34.8802 20.284C35.0159 19.7068 35.3459 17.5788 33.9654 16.0114C33.2315 15.178 32.1117 14.6927 30.9663 14.7138V14.7153ZM30.5322 20.9351C30.1117 21.4942 29.4938 21.8695 29.0206 21.8454C28.8789 21.8379 28.7644 21.7173 28.7644 21.5771V18.9427C28.7644 18.1123 29.1562 17.728 29.4863 17.5502C29.6657 17.4537 29.851 17.4205 30.0168 17.4205C30.2187 17.4205 30.3905 17.4703 30.4855 17.514C30.8728 17.6963 31.0823 18.0264 31.1471 18.5524C31.1969 18.9563 31.236 19.9947 30.5322 20.9336V20.9351Z" fill="white"/>
<path d="M15.7317 14.474V12.8841C15.7317 12.5374 15.4318 12.2661 15.0866 12.3008L8.72516 12.9398C8.72516 12.9398 8.39358 12.97 8.06955 12.9926C7.49233 13.0333 7.05678 13.0453 6.73275 12.9037C6.54437 12.8208 6.29119 12.6369 6.16459 12.352C6.12239 12.2586 5.9988 12.2375 5.92797 12.3114C5.55571 12.7032 5.18647 13.294 5.04179 13.8426C4.88354 14.4409 4.83984 15.2321 5.32814 15.8229C5.68231 16.2524 6.30172 16.6202 7.63551 16.486C7.952 16.4544 8.28659 16.4197 8.47799 16.4001C8.5639 16.3911 8.63773 16.4589 8.63773 16.5448V24.754C8.63773 25.1021 8.93765 25.3734 9.28429 25.3372L11.2676 25.1368C12.0167 25.0614 12.5864 24.43 12.5864 23.6764V16.1168C12.5864 16.0414 12.6436 15.9796 12.7175 15.9721L14.5456 15.7882C15.2208 15.7204 15.7332 15.1522 15.7332 14.474H15.7317Z" fill="white"/>
</svg>
